#!OML:ASF F:\VICON\USERDATA\INSTALL\rory3\rory3.ASF
:FULLY-SPECIFIED
:DEGREES
190
root 0.564871 17.8721 6.21535 -3.09023 3.57825 0.298461
lowerback 10.8595 -1.72558 -3.28597
upperback 0.839128 -2.56204 2.39733
thorax -4.95549 -1.1714 4.75119
lowerneck -16.8244 -2.43769 -1.76069
upperneck 23.3726 -2.7114 -0.888457
head 10.2615 -1.51484 -0.390474
rclavicle -3.34952e-014 1.59028e-014
rhumerus -40.1926 -22.9657 -72.3834
rradius 26.5347
rwrist 5.25371
rhand -15.7451 19.7915
rfingers 7.12502
rthumb 10.4461 -9.92901
lclavicle -3.34952e-014 1.59028e-014
lhumerus -23.3956 -3.19032 79.9569
lradius 32.5324
lwrist 9.9855
lhand -28.7639 25.0933
lfingers 7.12502
lthumb -2.12369 55.0625
rfemur -24.898 2.96783 23.4837
rtibia 24.7944
rfoot -4.35481 -11.9455
rtoes 2.41279
lfemur 13.8997 -5.96949 -24.4037
ltibia 28.2464
lfoot -11.0637 -5.79272
ltoes -22.8021
191
root 0.542393 17.8904 6.42555 -3.16128 3.71084 -0.229811
lowerback 10.7829 -1.77791 -2.86956
upperback 0.790779 -2.56828 2.60916
thorax -4.97146 -1.18021 4.73757
lowerneck -16.9436 -2.4374 -1.76775
upperneck 23.7525 -2.67407 -1.01055
head 10.4205 -1.514 -0.433355
rclavicle 2.64881e-014 -8.74653e-015
rhumerus -40.3863 -23.1814 -72.103
rradius 26.3632
rwrist 5.14281
rhand -16.5598 19.1706
rfingers 7.12502
rthumb 9.66012 -10.5878
lclavicle 2.64881e-014 -8.74653e-015
lhumerus -23.5785 -2.83882 80.1729
lradius 32.1495
lwrist 9.77043
lhand -27.4748 26.8896
lfingers 7.12502
lthumb -0.878705 56.8676
rfemur -24.3537 3.35097 24.0649
rtibia 24.773
rfoot -2.93672 -11.8303
rtoes 4.00772
lfemur 13.3695 -5.88196 -23.5469
ltibia 30.3527
lfoot -9.40863 -7.95366
ltoes -21.3518
192
root 0.525771 17.9169 6.63698 -3.29914 3.69931 -0.717721
lowerback 10.8369 -1.71343 -2.3192
upperback 0.712081 -2.41104 2.69598
thorax -5.11916 -1.10858 4.49987
lowerneck -16.8549 -2.53873 -1.73762
upperneck 23.9498 -2.83475 -0.984812
head 10.4756 -1.58226 -0.452484
rclavicle -3.29486e-014 2.70347e-014
rhumerus -40.6365 -23.6687 -71.7792
rradius 26.0359
rwrist 5.0529
rhand -16.7673 19.6564
rfingers 7.12502
rthumb 9.45984 -10.1113
lclavicle -3.29486e-014 2.70347e-014
lhumerus -23.9372 -2.89023 80.357
lradius 32.0199
lwrist 9.60161
lhand -26.2808 29.9794
lfingers 7.12502
lthumb 0.274504 59.9589
rfemur -23.6709 3.35237 24.7154
rtibia 24.8994
rfoot -2.33288 -10.395
rtoes 7.80046
lfemur 12.6647 -5.67513 -22.751
ltibia 32.6711
lfoot -7.12859 -9.5761
ltoes -18.7061
193
root 0.512211 17.9365 6.84103 -3.3878 3.58499 -1.15945
lowerback 11.0234 -1.60622 -1.77396
upperback 0.508584 -2.19592 2.77231
thorax -5.47529 -1.00323 4.25509
lowerneck -16.3524 -2.60131 -1.74967
upperneck 23.7703 -2.94972 -0.915755
head 10.3155 -1.62804 -0.431886
rclavicle -5.56597e-015 1.03368e-014
rhumerus -41.1334 -23.7523 -71.5435
rradius 26.0366
rwrist 4.54995
rhand -16.7865 19.9751
rfingers 7.12502
rthumb 9.44136 -9.79338
lclavicle -5.56597e-015 1.03368e-014
lhumerus -24.5288 -3.04314 80.5954
lradius 32.0118
lwrist 9.51657
lhand -26.2845 32.2403
lfingers 7.12502
lthumb 0.270985 62.2199
rfemur -23.156 2.85652 25.4829
rtibia 25.3456
rfoot -2.20614 -9.42935
rtoes 7.98778
lfemur 11.7 -5.27486 -21.9709
ltibia 35.048
lfoot -4.89615 -10.7622
ltoes -17.5882
194
root 0.500058 17.9379 7.04093 -3.43946 3.33137 -1.51872
lowerback 10.9723 -1.52879 -1.39092
upperback 0.51366 -2.03954 2.86431
thorax -5.46453 -0.934883 4.10915
lowerneck -16.2828 -2.58893 -1.69313
upperneck 23.5665 -2.94482 -0.932102
head 10.227 -1.62232 -0.442932
rclavicle 1.93815e-015 7.95139e-015
rhumerus -41.2188 -24.0882 -71.3804
rradius 25.9551
rwrist 4.57522
rhand -17.1368 19.9207
rfingers 7.12502
rthumb 9.10336 -9.86289
lclavicle 1.93815e-015 7.95139e-015
lhumerus -24.8019 -2.75918 80.6882
lradius 31.8342
lwrist 9.35165
lhand -26.9254 31.7239
lfingers 7.12502
lthumb -0.348056 61.7033
rfemur -22.7418 2.28333 26.2159
rtibia 25.9661
rfoot -2.23371 -8.88928
rtoes 7.00416
lfemur 10.71 -4.61443 -21.2105
ltibia 37.4312
lfoot -2.58047 -12.0603
ltoes -16.1432
195
root 0.487355 17.938 7.23759 -3.46946 2.95408 -1.81785
lowerback 10.7466 -1.38942 -1.0708
upperback 0.733943 -1.81514 2.92915
thorax -5.132 -0.839797 3.94664
lowerneck -16.871 -2.55876 -1.69947
upperneck 23.5413 -2.93058 -0.761712
head 10.3331 -1.59439 -0.388419
rclavicle -2.09966e-014 2.14687e-014
rhumerus -40.7419 -24.6787 -71.3314
rradius 25.5844
rwrist 4.90741
rhand -17.3571 19.2937
rfingers 7.12502
rthumb 8.89079 -10.499
lclavicle -2.09966e-014 2.14687e-014
lhumerus -24.6572 -2.29614 80.7327
lradius 31.5432
lwrist 8.98802
lhand -26.5963 30.6524
lfingers 7.12502
lthumb -0.0301591 60.6321
rfemur -22.4958 2.12066 26.7769
rtibia 26.8037
rfoot -2.41394 -8.42038
rtoes 8.20121
lfemur 9.72886 -3.94912 -20.5409
ltibia 39.7117
lfoot 0.172835 -13.1458
ltoes -15.2119
196
root 0.471031 17.9391 7.42399 -3.56518 2.57399 -2.35796
lowerback 10.843 -1.27173 -0.531807
upperback 0.768047 -1.58522 3.06811
thorax -5.17806 -0.736451 3.75642
lowerneck -16.9322 -2.53513 -1.7838
upperneck 23.4024 -2.92752 -0.546492
head 10.2995 -1.57408 -0.297186
rclavicle 1.18525e-014 1.03368e-014
rhumerus -40.5969 -24.8356 -71.342
rradius 25.4828
rwrist 5.14258
rhand -17.2532 18.4371
rfingers 7.12502
rthumb 8.99103 -11.3513
lclavicle 1.18525e-014 1.03368e-014
lhumerus -24.8234 -1.8297 80.8004
lradius 31.3418
lwrist 8.644
lhand -25.2697 33.2273
lfingers 7.12502
lthumb 1.25112 63.2033
rfemur -22.2761 2.20129 27.5244
rtibia 27.7078
rfoot -3.05807 -7.9288
rtoes 11.7227
lfemur 8.66954 -3.34139 -19.5782
ltibia 41.9659
lfoot 3.06536 -14.0076
ltoes -12.2523
197
root 0.462387 17.9456 7.61506 -3.65009 2.39266 -2.15789
lowerback 11.0358 -1.15391 -0.610613
upperback 0.653465 -1.43972 2.95868
thorax -5.41706 -0.659357 3.67363
lowerneck -16.6029 -2.56799 -1.7203
upperneck 23.1786 -2.99123 -0.573723
head 10.1546 -1.6016 -0.318906
rclavicle -2.33572e-015 -2.14687e-014
rhumerus -40.6737 -24.926 -71.2762
rradius 25.3028
rwrist 5.30739
rhand -16.4944 19.042
rfingers 7.12502
rthumb 9.72316 -10.7135
lclavicle -2.33572e-015 -2.14687e-014
lhumerus -25.6295 -1.63675 80.906
lradius 31.6961
lwrist 8.56268
lhand -24.6236 34.7991
lfingers 7.12502
lthumb 1.8751 64.7706
rfemur -21.8877 1.79482 27.47
rtibia 28.4478
rfoot -4.06341 -7.40278
rtoes 12.8791
lfemur 7.54453 -2.91017 -19.5363
ltibia 44.2207
lfoot 5.70951 -14.7174
ltoes -9.16828
198
root 0.451073 17.9596 7.81034 -3.79006 2.29585 -2.00081
lowerback 11.206 -1.05937 -0.683301
upperback 0.67116 -1.32641 2.87674
thorax -5.50144 -0.601524 3.61606
lowerneck -16.6339 -2.5598 -1.68577
upperneck 23.039 -2.98948 -0.566426
head 10.1096 -1.59653 -0.320833
rclavicle -4.72114e-016 -1.15295e-014
rhumerus -40.5504 -24.9472 -71.3758
rradius 25.2499
rwrist 5.34963
rhand -15.6916 20.5552
rfingers 7.12502
rthumb 10.4976 -9.16268
lclavicle -4.72114e-016 -1.15295e-014
lhumerus -26.3379 -1.60354 81.0544
lradius 32.1429
lwrist 8.76404
lhand -24.5561 33.6274
lfingers 7.12502
lthumb 1.94031 63.5983
rfemur -21.2658 1.19993 27.4976
rtibia 28.9497
rfoot -5.0011 -6.99
rtoes 11.6773
lfemur 6.4662 -2.57223 -19.4606
ltibia 46.5104
lfoot 7.25296 -15.6694
ltoes -13.0263
199
root 0.429226 17.9746 7.99506 -3.93492 2.26242 -2.46564
lowerback 11.3485 -1.04334 -0.250835
upperback 0.813427 -1.24656 2.95653
thorax -5.44414 -0.573585 3.44351
lowerneck -16.9634 -2.53039 -1.51946
upperneck 22.8977 -2.97907 -0.5961
head 10.1175 -1.57962 -0.360903
rclavicle 2.56432e-014 -3.26007e-014
rhumerus -40.2213 -24.7536 -71.7811
rradius 25.342
rwrist 5.05196
rhand -15.0464 21.3274
rfingers 7.12502
rthumb 11.12 -8.35801
lclavicle 2.56432e-014 -3.26007e-014
lhumerus -26.4808 -1.59003 81.1131
lradius 31.9658
lwrist 8.49328
lhand -24.3209 33.0241
lfingers 7.12502
lthumb 2.16748 62.9928
rfemur -20.6373 0.938676 28.2028
rtibia 29.3038
rfoot -5.42443 -6.86213
rtoes 9.97942
lfemur 5.26543 -2.29718 -18.6053
ltibia 48.7739
lfoot 10.3365 -17.6449
ltoes -8.7941
200
root 0.410618 17.9962 8.1827 -4.05972 2.44097 -2.77349
lowerback 11.419 -1.09719 0.111497
upperback 0.905766 -1.27184 2.97006
thorax -5.39238 -0.59553 3.25622
lowerneck -17.1484 -2.52677 -1.4043
upperneck 22.7379 -3.00755 -0.574105
head 10.0933 -1.5795 -0.377229
rclavicle -3.65267e-015 -1.51076e-014
rhumerus -39.8763 -24.7989 -72.011
rradius 25.2018
rwrist 5.27377
rhand -14.8811 21.3709
rfingers 7.12502
rthumb 11.2794 -8.30583
lclavicle -3.65267e-015 -1.51076e-014
lhumerus -26.6054 -1.57988 81.1455
lradius 31.4479
lwrist 7.85013
lhand -25.1437 31.4366
lfingers 7.12502
lthumb 1.37277 61.412
rfemur -19.8415 0.578961 28.6832
rtibia 29.328
rfoot -5.41946 -6.5789
rtoes 8.75747
lfemur 4.04468 -2.2877 -17.9923
ltibia 50.9824
lfoot 13.0649 -18.5566
ltoes 0.611865
